<svg width="21" height="21" viewBox="0 0 21 21" fill="none" xmlns="http://www.w3.org/2000/svg">
<path d="M19.456 0.660156H1.664C1.054 0.660156 0.559998 1.15416 0.559998 1.76416V19.5572C0.559998 20.1662 1.054 20.6602 1.664 20.6602H11.244V12.9152H8.636V9.89716H11.242V7.67016C11.242 5.08716 12.82 3.68016 15.125 3.68016C16.229 3.68016 17.177 3.76216 17.454 3.79916V6.49916H15.856C14.602 6.49916 14.36 7.09616 14.36 7.96916V9.89716H17.349L16.959 12.9152H14.359V20.6602H19.457C20.065 20.6602 20.559 20.1662 20.559 19.5562V1.76416C20.56 1.15416 20.066 0.660156 19.456 0.660156Z" fill="white"/>
</svg>
