<svg width="72" height="73" viewBox="0 0 72 73" fill="none" xmlns="http://www.w3.org/2000/svg">
<g clip-path="url(#clip0_7_32)">
<path d="M36 72.5801C55.8823 72.5801 72 56.4623 72 36.5801C72 16.6978 55.8823 0.580078 36 0.580078C16.1177 0.580078 0 16.6978 0 36.5801C0 56.4623 16.1177 72.5801 36 72.5801Z" fill="url(#paint0_linear_7_32)"/>
<path d="M44.633 16.5801C45.4527 16.5811 46.2386 16.9072 46.8182 17.4869C47.3978 18.0665 47.7239 18.8524 47.725 19.6721V27.2421C52.955 27.5281 57.118 31.6071 57.118 36.5801C57.118 41.5531 52.956 45.6321 47.725 45.9181V53.4881C47.7242 54.3079 47.3982 55.0939 46.8185 55.6736C46.2388 56.2533 45.4528 56.5793 44.633 56.5801H27.099C26.2792 56.5793 25.4932 56.2533 24.9135 55.6736C24.3338 55.0939 24.0078 54.3079 24.007 53.4881V46.2481C24.007 46.0924 24.0688 45.9431 24.1789 45.833C24.289 45.7229 24.4383 45.6611 24.594 45.6611C24.7497 45.6611 24.899 45.7229 25.0091 45.833C25.1191 45.9431 25.181 46.0924 25.181 46.2481V49.7701H46.551V45.9181C45.5657 45.8657 44.5928 45.6745 43.661 45.3501L39.278 47.7411C38.812 47.9951 38.265 47.5211 38.445 47.0251L39.753 43.4291H33.048C32.8924 43.4285 32.7433 43.3667 32.633 43.2571L27.936 38.5611C27.8264 38.4507 27.7647 38.3016 27.764 38.1461V25.3081C27.764 24.9841 28.027 24.7211 28.351 24.7211H43.381C43.705 24.7211 43.968 24.9841 43.968 25.3081V27.7101C44.787 27.4521 45.653 27.2911 46.551 27.2421V22.7641H25.18V43.4681C25.18 43.5452 25.1648 43.6215 25.1353 43.6927C25.1058 43.7639 25.0626 43.8286 25.0081 43.8831C24.9535 43.9377 24.8888 43.9809 24.8176 44.0104C24.7464 44.0399 24.6701 44.0551 24.593 44.0551C24.5159 44.0551 24.4396 44.0399 24.3683 44.0104C24.2971 43.9809 24.2324 43.9377 24.1779 43.8831C24.1234 43.8286 24.0802 43.7639 24.0507 43.6927C24.0212 43.6215 24.006 43.5452 24.006 43.4681V19.6721C24.007 18.8522 24.3333 18.0662 24.9131 17.4865C25.493 16.9069 26.2791 16.5809 27.099 16.5801H44.633ZM46.551 50.9441H25.18V53.4881C25.1805 53.9966 25.3828 54.4841 25.7423 54.8437C26.1019 55.2033 26.5895 55.4055 27.098 55.4061H44.632C45.1405 55.4055 45.628 55.2033 45.9876 54.8437C46.3472 54.4841 46.5494 53.9966 46.55 53.4881L46.551 50.9441ZM37.118 51.6491C37.443 51.6491 37.705 51.9111 37.705 52.2361V54.1141C37.705 54.1912 37.6898 54.2675 37.6603 54.3387C37.6308 54.4099 37.5876 54.4746 37.5331 54.5291C37.4785 54.5837 37.4138 54.6269 37.3426 54.6564C37.2714 54.6859 37.1951 54.7011 37.118 54.7011H34.613C34.5359 54.7011 34.4596 54.6859 34.3883 54.6564C34.3171 54.6269 34.2524 54.5837 34.1979 54.5291C34.1434 54.4746 34.1002 54.4099 34.0707 54.3387C34.0412 54.2675 34.026 54.1912 34.026 54.1141V52.2361C34.026 51.9111 34.289 51.6491 34.613 51.6491H37.118ZM36.531 52.8231H35.201V53.5271H36.531V52.8231ZM47.138 28.4001C42.282 28.4001 38.332 32.0701 38.332 36.5801C38.332 38.7971 39.272 40.8731 40.979 42.4261C41.156 42.5861 41.218 42.8361 41.136 43.0611L40.08 45.9661L43.331 44.1931C43.4054 44.1524 43.4877 44.1282 43.5723 44.1224C43.6568 44.1165 43.7417 44.129 43.821 44.1591C44.8811 44.5589 46.005 44.7625 47.138 44.7601C51.994 44.7601 55.944 41.0901 55.944 36.5801C55.944 32.0701 51.994 28.4001 47.138 28.4001ZM47.138 29.7301C47.462 29.7301 47.725 29.9941 47.725 30.3181V31.6091H47.765C48.4186 31.6101 49.0451 31.8703 49.5072 32.3326C49.9693 32.7948 50.2292 33.4215 50.23 34.0751V34.7011C50.23 34.8568 50.1681 35.0061 50.0581 35.1161C49.948 35.2262 49.7987 35.2881 49.643 35.2881C49.4873 35.2881 49.338 35.2262 49.2279 35.1161C49.1178 35.0061 49.056 34.8568 49.056 34.7011V34.0751C49.056 33.3631 48.476 32.7841 47.764 32.7841H46.824C45.94 32.7841 45.22 33.5041 45.22 34.3881C45.22 35.2731 45.94 35.9931 46.825 35.9931H47.451C48.1878 35.9939 48.8942 36.2869 49.4152 36.8079C49.9361 37.3289 50.2292 38.0353 50.23 38.7721C50.23 40.2121 49.13 41.3991 47.725 41.5371V42.8421C47.725 42.9978 47.6631 43.1471 47.5531 43.2571C47.443 43.3672 47.2937 43.4291 47.138 43.4291C46.9823 43.4291 46.833 43.3672 46.7229 43.2571C46.6128 43.1471 46.551 42.9978 46.551 42.8421V41.5511H46.511C45.8574 41.55 45.2309 41.2898 44.7688 40.8276C44.3067 40.3653 44.0468 39.7387 44.046 39.0851C44.046 38.9294 44.1078 38.7801 44.2179 38.67C44.328 38.5599 44.4773 38.4981 44.633 38.4981C44.7887 38.4981 44.938 38.5599 45.0481 38.67C45.1581 38.7801 45.22 38.9294 45.22 39.0851C45.22 39.7971 45.8 40.3761 46.512 40.3761H47.451C48.336 40.3761 49.056 39.6561 49.056 38.7721C49.056 37.8871 48.336 37.1671 47.451 37.1671H46.825C46.088 37.1665 45.3814 36.8736 44.8602 36.3526C44.339 35.8316 44.0458 35.125 44.045 34.3881C44.045 32.9481 45.147 31.7611 46.551 31.6231V30.3181C46.551 29.9941 46.814 29.7301 47.138 29.7301ZM42.793 25.8951H28.938V37.5581H33.048C33.372 37.5581 33.635 37.8211 33.635 38.1461V42.2561H39.202C37.875 40.6341 37.158 38.6631 37.158 36.5801C37.158 35.4681 37.366 34.4001 37.748 33.4101H31.482C31.3263 33.4101 31.177 33.3482 31.0669 33.2382C30.9568 33.1281 30.895 32.9788 30.895 32.8231C30.895 32.6674 30.9568 32.5181 31.0669 32.408C31.177 32.2979 31.3263 32.2361 31.482 32.2361H38.302C38.701 31.5251 39.195 30.8671 39.768 30.2791H37.745C37.5893 30.2791 37.44 30.2172 37.3299 30.1071C37.2198 29.9971 37.158 29.8478 37.158 29.6921C37.158 29.5364 37.2198 29.3871 37.3299 29.277C37.44 29.1669 37.5893 29.1051 37.745 29.1051H40.875C40.951 29.1051 41.023 29.1191 41.089 29.1451C41.619 28.7651 42.189 28.4351 42.793 28.1601V25.8951ZM32.461 38.7331H29.769L32.461 41.4251V38.7331ZM35.866 35.3671C36.0217 35.3671 36.171 35.4289 36.2811 35.539C36.3911 35.6491 36.453 35.7984 36.453 35.9541C36.453 36.1098 36.3911 36.2591 36.2811 36.3691C36.171 36.4792 36.0217 36.5411 35.866 36.5411H31.482C31.3263 36.5411 31.177 36.4792 31.0669 36.3691C30.9568 36.2591 30.895 36.1098 30.895 35.9541C30.895 35.7984 30.9568 35.6491 31.0669 35.539C31.177 35.4289 31.3263 35.3671 31.482 35.3671H35.866ZM35.24 29.1041C35.3958 29.1041 35.5452 29.166 35.6554 29.2762C35.7656 29.3863 35.8275 29.5358 35.8275 29.6916C35.8275 29.8474 35.7656 29.9968 35.6554 30.107C35.5452 30.2172 35.3958 30.2791 35.24 30.2791H31.482C31.3262 30.2791 31.1767 30.2172 31.0666 30.107C30.9564 29.9968 30.8945 29.8474 30.8945 29.6916C30.8945 29.5358 30.9564 29.3863 31.0666 29.2762C31.1767 29.166 31.3262 29.1041 31.482 29.1041H35.24ZM44.633 17.7541H27.099C26.5905 17.7546 26.1029 17.9569 25.7433 18.3164C25.3838 18.676 25.1815 19.1636 25.181 19.6721V21.5901H46.551V19.6721C46.5504 19.1636 46.3482 18.676 45.9886 18.3164C45.629 17.9569 45.1415 17.7546 44.633 17.7541ZM37.118 19.0841C37.2738 19.0841 37.4232 19.146 37.5334 19.2562C37.6436 19.3663 37.7055 19.5158 37.7055 19.6716C37.7055 19.8274 37.6436 19.9768 37.5334 20.087C37.4232 20.1972 37.2738 20.2591 37.118 20.2591H34.613C34.4573 20.2591 34.308 20.1972 34.1979 20.0872C34.0878 19.9771 34.026 19.8278 34.026 19.6721C34.026 19.5164 34.0878 19.3671 34.1979 19.257C34.308 19.1469 34.4573 19.0851 34.613 19.0851L37.118 19.0841Z" fill="white"/>
</g>
<defs>
<linearGradient id="paint0_linear_7_32" x1="0" y1="0.580078" x2="7169.76" y2="7170.34" gradientUnits="userSpaceOnUse">
<stop stop-color="#33D35E"/>
<stop offset="1" stop-color="#2AB6D9"/>
</linearGradient>
<clipPath id="clip0_7_32">
<rect width="72" height="72" fill="white" transform="translate(0 0.580078)"/>
</clipPath>
</defs>
</svg>
