<svg width="72" height="73" viewBox="0 0 72 73" fill="none" xmlns="http://www.w3.org/2000/svg">
<g clip-path="url(#clip0_7_50)">
<path d="M36 72.9497C55.8823 72.9497 72 56.832 72 36.9497C72 17.0675 55.8823 0.949707 36 0.949707C16.1177 0.949707 0 17.0675 0 36.9497C0 56.832 16.1177 72.9497 36 72.9497Z" fill="url(#paint0_linear_7_50)"/>
<path d="M26.118 29.2887C26.1366 29.2136 26.17 29.143 26.2161 29.0809C26.2622 29.0187 26.3201 28.9663 26.3865 28.9267C26.453 28.8871 26.5266 28.861 26.6032 28.85C26.6798 28.839 26.7578 28.8432 26.8327 28.8625C26.9076 28.8818 26.978 28.9157 27.0397 28.9623C27.1015 29.0089 27.1534 29.0673 27.1925 29.1341C27.2315 29.2008 27.257 29.2747 27.2674 29.3513C27.2778 29.428 27.2729 29.506 27.253 29.5807C27.213 29.7367 27.193 29.8977 27.193 30.0607V43.8397C27.193 44.8977 28.053 45.7587 29.111 45.7587H42.89C43.053 45.7587 43.214 45.7387 43.37 45.6987C43.4456 45.6759 43.5251 45.6685 43.6036 45.6772C43.6821 45.6858 43.7581 45.7102 43.8269 45.749C43.8958 45.7877 43.9561 45.84 44.0042 45.9027C44.0523 45.9653 44.0873 46.037 44.107 46.1135C44.1267 46.19 44.1307 46.2697 44.1189 46.3478C44.107 46.4259 44.0794 46.5008 44.0378 46.568C43.9963 46.6352 43.9415 46.6933 43.877 46.7388C43.8124 46.7843 43.7392 46.8162 43.662 46.8327C43.4098 46.8977 43.1504 46.9306 42.89 46.9307H41.597V48.6977C41.597 49.0427 41.731 49.3677 41.976 49.6117L45.831 53.4667C46.1756 53.296 46.565 53.2376 46.9446 53.2997C47.3241 53.3617 47.6747 53.5412 47.947 53.8127C48.2914 54.1577 48.4848 54.6253 48.4848 55.1127C48.4848 55.6002 48.2914 56.0678 47.947 56.4127C47.589 56.7707 47.118 56.9497 46.647 56.9497C46.177 56.9497 45.706 56.7697 45.347 56.4117C45.0756 56.1393 44.8963 55.7887 44.8345 55.4092C44.7726 55.0296 44.8312 54.6403 45.002 54.2957L41.147 50.4407C40.9173 50.2124 40.7353 49.9408 40.6113 49.6416C40.4874 49.3424 40.4241 49.0216 40.425 48.6977V46.9297H39.092V49.4747C39.092 49.6301 39.0302 49.7792 38.9203 49.8891C38.8105 49.999 38.6614 50.0607 38.506 50.0607C38.3506 50.0607 38.2015 49.999 38.0916 49.8891C37.9817 49.7792 37.92 49.6301 37.92 49.4747V46.9297H36.587V56.3637C36.587 56.5191 36.5252 56.6682 36.4153 56.7781C36.3055 56.888 36.1564 56.9497 36.001 56.9497C35.8456 56.9497 35.6965 56.888 35.5866 56.7781C35.4767 56.6682 35.415 56.5191 35.415 56.3637V46.9297H34.082V49.4747C34.082 49.6301 34.0202 49.7792 33.9103 49.8891C33.8005 49.999 33.6514 50.0607 33.496 50.0607C33.3406 50.0607 33.1915 49.999 33.0816 49.8891C32.9717 49.7792 32.91 49.6301 32.91 49.4747V46.9297H31.577V52.1167C31.9417 52.2397 32.2588 52.4738 32.4835 52.7863C32.7083 53.0988 32.8294 53.4738 32.83 53.8587C32.8295 54.3462 32.6355 54.8136 32.2907 55.1582C31.9459 55.5028 31.4785 55.6965 30.991 55.6967C30.5037 55.6962 30.0365 55.5024 29.6919 55.1578C29.3473 54.8132 29.1535 54.346 29.153 53.8587C29.153 53.0497 29.678 52.3617 30.405 52.1167V46.9297H29.112C28.2926 46.9287 27.5071 46.6026 26.9278 46.0232C26.3486 45.4437 26.0228 44.6581 26.022 43.8387V42.5457H24.254C23.909 42.5457 23.584 42.6797 23.34 42.9247L19.486 46.7777C19.611 47.0287 19.678 47.3077 19.678 47.5957C19.678 48.0877 19.487 48.5487 19.14 48.8957C18.9697 49.0671 18.7671 49.2029 18.544 49.2954C18.3208 49.3879 18.0815 49.4353 17.84 49.4347C17.348 49.4347 16.887 49.2437 16.54 48.8957C16.3687 48.7254 16.2328 48.5229 16.1403 48.2997C16.0478 48.0766 16.0004 47.8373 16.001 47.5957C16.001 47.1057 16.192 46.6437 16.539 46.2957C16.7094 46.1246 16.912 45.9889 17.1351 45.8966C17.3583 45.8042 17.5975 45.757 17.839 45.7577C18.129 45.7577 18.406 45.8247 18.658 45.9497L22.511 42.0957C22.7393 41.8661 23.0109 41.684 23.3101 41.5601C23.6093 41.4361 23.9301 41.3728 24.254 41.3737H26.021V40.0407H23.476C23.3206 40.0407 23.1715 39.979 23.0616 39.8691C22.9517 39.7592 22.89 39.6101 22.89 39.4547C22.89 39.2993 22.9517 39.1503 23.0616 39.0404C23.1715 38.9305 23.3206 38.8687 23.476 38.8687H26.021V37.5357H16.587C16.4316 37.5357 16.2825 37.474 16.1726 37.3641C16.0627 37.2542 16.001 37.1051 16.001 36.9497C16.001 36.7943 16.0627 36.6453 16.1726 36.5354C16.2825 36.4255 16.4316 36.3637 16.587 36.3637H26.021V35.0307H23.476C23.3206 35.0307 23.1715 34.969 23.0616 34.8591C22.9517 34.7492 22.89 34.6001 22.89 34.4447C22.89 34.2893 22.9517 34.1403 23.0616 34.0304C23.1715 33.9205 23.3206 33.8587 23.476 33.8587H26.021V32.5257H20.834C20.7109 32.8903 20.4766 33.2071 20.1642 33.4317C19.8517 33.6562 19.4768 33.7773 19.092 33.7777C18.6047 33.7772 18.1375 33.5834 17.7929 33.2388C17.4483 32.8942 17.2545 32.427 17.254 31.9397C17.2542 31.4523 17.4479 30.9848 17.7926 30.64C18.1372 30.2952 18.6045 30.1013 19.092 30.1007C19.901 30.1007 20.589 30.6267 20.834 31.3537H26.021V30.0607C26.021 29.7997 26.053 29.5397 26.118 29.2887ZM46.646 54.4447C46.5139 54.4442 46.3847 54.4831 46.2747 54.5563C46.1648 54.6295 46.0792 54.7338 46.0288 54.8559C45.9784 54.978 45.9654 55.1123 45.9916 55.2417C46.0179 55.3712 46.082 55.4899 46.176 55.5827C46.2535 55.6605 46.3491 55.7179 46.4542 55.7499C46.5592 55.7818 46.6706 55.7873 46.7783 55.7659C46.886 55.7445 46.9868 55.6968 47.0716 55.6271C47.1565 55.5574 47.2228 55.4678 47.2647 55.3663C47.3067 55.2648 47.3229 55.1545 47.3119 55.0453C47.301 54.936 47.2632 54.8311 47.202 54.7399C47.1408 54.6488 47.058 54.5741 46.961 54.5226C46.864 54.4711 46.7558 54.4444 46.646 54.4447ZM30.99 53.1927C30.9024 53.1929 30.8157 53.2102 30.7348 53.2439C30.6539 53.2775 30.5805 53.3268 30.5186 53.3888C30.4568 53.4508 30.4078 53.5244 30.3744 53.6054C30.341 53.6864 30.3238 53.7731 30.324 53.8607C30.3241 53.9483 30.3415 54.035 30.3751 54.1159C30.4088 54.1968 30.458 54.2702 30.52 54.3321C30.5821 54.3939 30.6557 54.4429 30.7367 54.4763C30.8176 54.5097 30.9044 54.5269 30.992 54.5267C31.1689 54.5265 31.3384 54.4559 31.4633 54.3307C31.5882 54.2054 31.6582 54.0356 31.658 53.8587C31.6577 53.6818 31.5872 53.5123 31.4619 53.3874C31.3366 53.2625 31.1669 53.1925 30.99 53.1927ZM17.838 46.9297C17.7507 46.9296 17.6642 46.9468 17.5835 46.9803C17.5028 47.0137 17.4296 47.0628 17.368 47.1247C17.3058 47.1864 17.2564 47.2597 17.2228 47.3406C17.1891 47.4214 17.1719 47.5082 17.172 47.5957C17.1713 47.6835 17.1881 47.7705 17.2214 47.8518C17.2547 47.933 17.3038 48.0068 17.3659 48.0689C17.4279 48.1309 17.5017 48.18 17.5829 48.2133C17.6642 48.2466 17.7512 48.2634 17.839 48.2627C17.9268 48.2634 18.0138 48.2466 18.095 48.2133C18.1762 48.18 18.25 48.1309 18.3121 48.0689C18.3742 48.0068 18.4233 47.933 18.4566 47.8518C18.4898 47.7705 18.5066 47.6835 18.506 47.5957C18.506 47.5083 18.4886 47.4218 18.455 47.3411C18.4213 47.2605 18.3721 47.1873 18.31 47.1257C18.2482 47.0634 18.1747 47.014 18.0937 46.9803C18.0126 46.9467 17.9257 46.9295 17.838 46.9297ZM36 16.9497C36.324 16.9497 36.586 17.2117 36.586 17.5357V26.9697H37.919V24.4247C37.919 24.2693 37.9807 24.1203 38.0906 24.0104C38.2005 23.9005 38.3496 23.8387 38.505 23.8387C38.6604 23.8387 38.8095 23.9005 38.9193 24.0104C39.0292 24.1203 39.091 24.2693 39.091 24.4247V26.9697H40.424V21.7827C40.0594 21.6596 39.7426 21.4254 39.518 21.1129C39.2935 20.8005 39.1725 20.4255 39.172 20.0407C39.1725 19.5534 39.3663 19.0862 39.7109 18.7417C40.0555 18.3971 40.5227 18.2033 41.01 18.2027C41.4975 18.203 41.9649 18.3967 42.3097 18.7413C42.6545 19.0859 42.8485 19.5533 42.849 20.0407C42.849 20.8497 42.323 21.5377 41.596 21.7827V26.9697H42.889C43.7083 26.9708 44.4938 27.2968 45.0731 27.8763C45.6524 28.4558 45.9782 29.2414 45.979 30.0607V31.3537H47.747C48.092 31.3537 48.417 31.2187 48.661 30.9747L52.515 27.1217C52.3884 26.8676 52.3227 26.5876 52.323 26.3037C52.323 25.8117 52.514 25.3507 52.862 25.0037C53.0323 24.8324 53.2349 24.6966 53.458 24.604C53.6811 24.5115 53.9204 24.4642 54.162 24.4647C54.652 24.4647 55.114 24.6557 55.462 25.0037C55.809 25.3507 56 25.8127 56 26.3037C56 26.7937 55.809 27.2557 55.462 27.6037C55.2916 27.7749 55.089 27.9105 54.8658 28.0029C54.6427 28.0952 54.4035 28.1424 54.162 28.1417C53.8778 28.1422 53.5974 28.0765 53.343 27.9497L49.49 31.8037C49.2617 32.0334 48.99 32.2155 48.6908 32.3394C48.3916 32.4633 48.0708 32.5267 47.747 32.5257H45.98V33.8587H48.525C48.6804 33.8587 48.8294 33.9205 48.9393 34.0304C49.0492 34.1403 49.111 34.2893 49.111 34.4447C49.111 34.6001 49.0492 34.7492 48.9393 34.8591C48.8294 34.969 48.6804 35.0307 48.525 35.0307H45.98V36.3637H55.414C55.4909 36.3637 55.5671 36.3789 55.6382 36.4083C55.7093 36.4378 55.7739 36.481 55.8283 36.5354C55.8828 36.5898 55.9259 36.6544 55.9554 36.7255C55.9848 36.7966 56 36.8728 56 36.9497C56 37.0267 55.9848 37.1029 55.9554 37.174C55.9259 37.2451 55.8828 37.3097 55.8283 37.3641C55.7739 37.4185 55.7093 37.4617 55.6382 37.4911C55.5671 37.5206 55.4909 37.5357 55.414 37.5357H45.98V38.8687H48.525C48.6804 38.8687 48.8294 38.9305 48.9393 39.0404C49.0492 39.1503 49.111 39.2993 49.111 39.4547C49.111 39.6101 49.0492 39.7592 48.9393 39.8691C48.8294 39.979 48.6804 40.0407 48.525 40.0407H45.98V41.3737H51.167C51.2901 41.0092 51.5243 40.6923 51.8368 40.4678C52.1492 40.2432 52.5242 40.1222 52.909 40.1217C53.3963 40.1223 53.8635 40.3161 54.2081 40.6607C54.5526 41.0052 54.7465 41.4724 54.747 41.9597C54.7465 42.447 54.5526 42.9142 54.2081 43.2588C53.8635 43.6034 53.3963 43.7972 52.909 43.7977C52.5242 43.7973 52.1492 43.6762 51.8368 43.4517C51.5243 43.2271 51.2901 42.9103 51.167 42.5457H45.98V43.8387C45.9801 44.0988 45.9475 44.3578 45.883 44.6097C45.8653 44.6857 45.8326 44.7575 45.7868 44.8207C45.741 44.8839 45.683 44.9373 45.6163 44.9778C45.5496 45.0183 45.4754 45.045 45.3982 45.0565C45.321 45.068 45.2423 45.0639 45.1667 45.0445C45.0911 45.0251 45.0201 44.9908 44.958 44.9436C44.8958 44.8964 44.8437 44.8373 44.8047 44.7697C44.7657 44.7021 44.7406 44.6274 44.7308 44.5499C44.7211 44.4725 44.7269 44.3939 44.748 44.3187C44.788 44.1627 44.808 44.0017 44.808 43.8387V30.0597C44.808 29.0017 43.947 28.1407 42.888 28.1407H29.112C28.949 28.1407 28.788 28.1607 28.632 28.2007C28.5564 28.2236 28.4769 28.2309 28.3984 28.2223C28.3198 28.2136 28.2439 28.1892 28.175 28.1505C28.1062 28.1117 28.0459 28.0595 27.9977 27.9968C27.9496 27.9342 27.9146 27.8624 27.8949 27.7859C27.8752 27.7094 27.8712 27.6297 27.8831 27.5516C27.895 27.4735 27.9226 27.3986 27.9641 27.3314C28.0057 27.2643 28.0604 27.2062 28.125 27.1607C28.1896 27.1152 28.2627 27.0832 28.34 27.0667C28.591 27.0017 28.85 26.9687 29.112 26.9687H30.405V25.2017C30.405 24.8567 30.271 24.5317 30.026 24.2877L26.171 20.4327C25.8264 20.6034 25.4371 20.6619 25.0576 20.6C24.6781 20.5382 24.3275 20.359 24.055 20.0877C23.7106 19.7428 23.5171 19.2752 23.5171 18.7877C23.5171 18.3003 23.7106 17.8327 24.055 17.4877C24.4 17.1433 24.8675 16.9499 25.355 16.9499C25.8425 16.9499 26.31 17.1433 26.655 17.4877C26.9264 17.7602 27.1056 18.1108 27.1675 18.4903C27.2294 18.8698 27.1708 19.2592 27 19.6037L30.855 23.4587C31.321 23.9247 31.577 24.5437 31.577 25.2017V26.9687H32.91V24.4237C32.91 24.2683 32.9717 24.1193 33.0816 24.0094C33.1915 23.8995 33.3406 23.8377 33.496 23.8377C33.6514 23.8377 33.8005 23.8995 33.9103 24.0094C34.0202 24.1193 34.082 24.2683 34.082 24.4237V26.9687H35.415V17.5347C35.415 17.2107 35.677 16.9487 36.001 16.9487L36 16.9497ZM37.761 30.1007C39.056 30.1007 40.109 31.0667 40.109 32.2527C40.1085 32.4118 40.089 32.5703 40.051 32.7247C41.306 33.0697 42.222 34.1307 42.222 35.3847C42.222 36.0867 41.922 36.7567 41.407 37.2627C41.923 37.7697 42.222 38.4397 42.222 39.1417C42.222 40.0967 41.678 40.9817 40.808 41.4857C40.721 42.7737 39.546 43.7987 38.114 43.7987C37.7153 43.8026 37.3204 43.7212 36.9558 43.5599C36.5912 43.3987 36.2653 43.1613 36 42.8637C35.7346 43.1613 35.4087 43.3987 35.0441 43.5599C34.6795 43.7212 34.2846 43.8026 33.886 43.7987C32.398 43.7987 31.186 42.6927 31.186 41.3337C30.31 40.7547 29.778 39.8247 29.778 38.8287C29.778 38.1737 30.004 37.5587 30.395 37.0517C29.9976 36.5867 29.7788 35.9954 29.778 35.3837C29.778 34.1307 30.694 33.0697 31.949 32.7237C31.9111 32.5699 31.8916 32.4121 31.891 32.2537C31.891 31.0667 32.944 30.1007 34.239 30.1007C34.939 30.1007 35.569 30.3847 36 30.8327C36.2292 30.5986 36.5033 30.4131 36.8059 30.2873C37.1085 30.1615 37.4333 30.0981 37.761 30.1007ZM37.761 31.2727C37.113 31.2727 36.586 31.7127 36.586 32.2527C36.586 32.4081 36.5242 32.5572 36.4143 32.6671C36.3045 32.777 36.1554 32.8387 36 32.8387C35.8446 32.8387 35.6955 32.777 35.5856 32.6671C35.4757 32.5572 35.414 32.4081 35.414 32.2527C35.414 31.7127 34.887 31.2727 34.239 31.2727C33.59 31.2727 33.063 31.7127 33.063 32.2527C33.0655 32.4597 33.1418 32.6589 33.278 32.8147L33.307 32.8527L33.315 32.8627L33.328 32.8847C33.383 32.9734 33.4134 33.0752 33.4159 33.1795C33.4184 33.2839 33.3931 33.387 33.3424 33.4782C33.2917 33.5695 33.2176 33.6455 33.1277 33.6985C33.0378 33.7515 32.9354 33.7796 32.831 33.7797L32.815 33.7787C31.785 33.7847 30.95 34.5027 30.949 35.3837C30.949 35.7027 31.061 36.0087 31.269 36.2697C31.601 36.0661 31.9642 35.9181 32.344 35.8317C32.4939 35.8011 32.6498 35.8303 32.7785 35.913C32.9072 35.9958 32.9984 36.1257 33.0326 36.2748C33.0668 36.4239 33.0413 36.5805 32.9616 36.7111C32.8819 36.8417 32.7543 36.936 32.606 36.9737C31.631 37.1977 30.949 37.9607 30.949 38.8287C30.949 39.3097 31.165 39.7707 31.535 40.1207C31.635 39.9577 31.757 39.8057 31.897 39.6657C31.9511 39.6094 32.0159 39.5644 32.0876 39.5335C32.1593 39.5026 32.2365 39.4863 32.3146 39.4856C32.3927 39.4849 32.4702 39.4999 32.5424 39.5296C32.6146 39.5593 32.6802 39.6031 32.7353 39.6585C32.7903 39.7139 32.8338 39.7797 32.863 39.8521C32.8923 39.9246 32.9068 40.0021 32.9056 40.0802C32.9045 40.1583 32.8877 40.2354 32.8564 40.3069C32.825 40.3784 32.7796 40.443 32.723 40.4967C32.488 40.7307 32.358 41.0277 32.358 41.3337C32.358 42.0467 33.044 42.6267 33.886 42.6267C34.729 42.6267 35.414 42.0467 35.414 41.3337V40.0797C35.414 39.5427 35.013 39.0547 34.415 38.8677C34.2693 38.8191 34.1486 38.7152 34.0788 38.5784C34.009 38.4416 33.9956 38.2829 34.0416 38.1364C34.0876 37.9899 34.1893 37.8673 34.3247 37.795C34.4602 37.7227 34.6187 37.7064 34.766 37.7497C35 37.8227 35.216 37.9247 35.414 38.0497V34.7957C35.414 34.6403 35.4757 34.4913 35.5856 34.3814C35.6955 34.2715 35.8446 34.2097 36 34.2097C36.1554 34.2097 36.3045 34.2715 36.4143 34.3814C36.5242 34.4913 36.586 34.6403 36.586 34.7957V35.5447C37.02 35.2707 37.546 35.1107 38.113 35.1107C38.2684 35.1107 38.4174 35.1725 38.5273 35.2824C38.6372 35.3923 38.699 35.5413 38.699 35.6967C38.699 35.8521 38.6372 36.0012 38.5273 36.1111C38.4174 36.221 38.2684 36.2827 38.113 36.2827C37.271 36.2827 36.586 36.8627 36.586 37.5747V41.3327C36.586 42.0457 37.271 42.6257 38.113 42.6257C38.956 42.6257 39.641 42.0457 39.641 41.3327C39.641 40.7947 39.24 40.3077 38.642 40.1197C38.4937 40.073 38.3701 39.9694 38.2983 39.8316C38.2264 39.6937 38.2123 39.533 38.259 39.3847C38.3057 39.2365 38.4093 39.1128 38.5472 39.041C38.685 38.9692 38.8457 38.955 38.994 39.0017C39.6491 39.199 40.2015 39.6438 40.534 40.2417C40.858 39.9477 41.05 39.5537 41.05 39.1407C41.05 38.5867 40.713 38.0777 40.149 37.7807C40.0545 37.731 39.9755 37.6564 39.9203 37.565C39.8652 37.4737 39.836 37.369 39.836 37.2622C39.836 37.1555 39.8652 37.0508 39.9203 36.9594C39.9755 36.868 40.0545 36.7935 40.149 36.7437C40.713 36.4457 41.05 35.9367 41.05 35.3837C41.05 34.5017 40.215 33.7837 39.185 33.7777H39.161C38.8798 33.7775 38.6014 33.8332 38.342 33.9417C38.2709 33.9726 38.1944 33.989 38.1169 33.9901C38.0395 33.9912 37.9625 33.9769 37.8906 33.9481C37.8187 33.9193 37.7532 33.8764 37.6979 33.8221C37.6427 33.7678 37.5987 33.7031 37.5686 33.6317C37.5386 33.5603 37.5229 33.4836 37.5227 33.4061C37.5224 33.3287 37.5375 33.2519 37.5671 33.1803C37.5967 33.1087 37.6403 33.0436 37.6952 32.989C37.7501 32.9343 37.8153 32.891 37.887 32.8617C38.193 32.7317 38.515 32.6517 38.849 32.6207C38.9066 32.5062 38.9367 32.3799 38.937 32.2517C38.937 31.7117 38.409 31.2727 37.761 31.2727ZM52.909 41.2927C52.8213 41.2928 52.7345 41.3101 52.6536 41.3437C52.5726 41.3773 52.4991 41.4266 52.4371 41.4886C52.3752 41.5506 52.3261 41.6242 52.2926 41.7052C52.2591 41.7863 52.2419 41.8731 52.242 41.9607C52.242 42.0484 52.2594 42.1352 52.293 42.2161C52.3266 42.2971 52.3758 42.3706 52.4378 42.4326C52.4999 42.4945 52.5735 42.5436 52.6545 42.5771C52.7355 42.6106 52.8223 42.6278 52.91 42.6277C53.0869 42.6277 53.2565 42.5575 53.3816 42.4324C53.5067 42.3073 53.577 42.1376 53.577 41.9607C53.577 41.7838 53.5067 41.6142 53.3816 41.4891C53.2565 41.364 53.0869 41.2937 52.91 41.2937L52.909 41.2927ZM19.091 31.2727C19.0033 31.2728 18.9165 31.2901 18.8356 31.3237C18.7546 31.3573 18.6811 31.4066 18.6191 31.4686C18.5572 31.5306 18.5081 31.6042 18.4746 31.6853C18.4411 31.7663 18.4239 31.8531 18.424 31.9407C18.424 32.0284 18.4414 32.1152 18.475 32.1961C18.5086 32.2771 18.5578 32.3506 18.6198 32.4126C18.6819 32.4745 18.7555 32.5236 18.8365 32.5571C18.9175 32.5906 19.0043 32.6078 19.092 32.6077C19.269 32.6076 19.4387 32.5371 19.5638 32.4119C19.6889 32.2866 19.7591 32.1168 19.759 31.9397C19.7589 31.7627 19.6884 31.593 19.5631 31.4679C19.4378 31.3428 19.268 31.2726 19.091 31.2727ZM54.161 25.6367C54.0737 25.6366 53.9872 25.6538 53.9065 25.6873C53.8258 25.7207 53.7526 25.7698 53.691 25.8317C53.6287 25.8935 53.5792 25.967 53.5456 26.0481C53.5119 26.1291 53.4947 26.216 53.495 26.3037C53.4943 26.3915 53.5111 26.4785 53.5444 26.5598C53.5777 26.641 53.6268 26.7148 53.6889 26.7769C53.7509 26.8389 53.8247 26.888 53.9059 26.9213C53.9872 26.9546 54.0742 26.9714 54.162 26.9707C54.34 26.9707 54.507 26.9007 54.632 26.7747C54.6942 26.7131 54.7435 26.6397 54.7772 26.5589C54.8108 26.478 54.8281 26.3913 54.828 26.3037C54.8284 26.2161 54.8113 26.1292 54.7778 26.0482C54.7444 25.9671 54.6951 25.8936 54.633 25.8317C54.5713 25.7697 54.4978 25.7205 54.417 25.6871C54.3362 25.6536 54.2485 25.6365 54.161 25.6367ZM41.011 19.3737C40.834 19.3737 40.6642 19.4441 40.539 19.5692C40.4138 19.6944 40.3435 19.8642 40.3435 20.0412C40.3435 20.2183 40.4138 20.388 40.539 20.5132C40.6642 20.6384 40.834 20.7087 41.011 20.7087C41.188 20.7087 41.3578 20.6384 41.483 20.5132C41.6082 20.388 41.6785 20.2183 41.6785 20.0412C41.6785 19.8642 41.6082 19.6944 41.483 19.5692C41.3578 19.4441 41.188 19.3737 41.011 19.3737ZM25.354 18.1217C25.2643 18.1184 25.1748 18.1332 25.091 18.1653C25.0071 18.1973 24.9306 18.246 24.866 18.3083C24.8014 18.3706 24.7501 18.4453 24.7151 18.528C24.68 18.6106 24.662 18.6995 24.6622 18.7893C24.6623 18.879 24.6806 18.9678 24.7158 19.0504C24.7511 19.1329 24.8027 19.2075 24.8675 19.2696C24.9323 19.3318 25.0089 19.3802 25.0929 19.412C25.1768 19.4438 25.2663 19.4583 25.356 19.4547C25.5283 19.4478 25.6912 19.3744 25.8105 19.25C25.9299 19.1255 25.9964 18.9597 25.9962 18.7873C25.9959 18.6148 25.9289 18.4492 25.8092 18.3251C25.6894 18.201 25.5263 18.1281 25.354 18.1217Z" fill="white"/>
</g>
<defs>
<linearGradient id="paint0_linear_7_50" x1="0" y1="0.949707" x2="7169.76" y2="7170.71" gradientUnits="userSpaceOnUse">
<stop stop-color="#33D35E"/>
<stop offset="1" stop-color="#2AB6D9"/>
</linearGradient>
<clipPath id="clip0_7_50">
<rect width="72" height="72" fill="white" transform="translate(0 0.949707)"/>
</clipPath>
</defs>
</svg>
