<svg width="72" height="73" viewBox="0 0 72 73" fill="none" xmlns="http://www.w3.org/2000/svg">
<g clip-path="url(#clip0_7_23)">
<path d="M36 72.3899C55.8823 72.3899 72 56.2721 72 36.3899C72 16.5076 55.8823 0.389893 36 0.389893C16.1177 0.389893 0 16.5076 0 36.3899C0 56.2721 16.1177 72.3899 36 72.3899Z" fill="url(#paint0_linear_7_23)"/>
<path d="M45.984 16.3899C46.8674 16.391 47.7143 16.7423 48.3389 17.367C48.9636 17.9916 49.3149 18.8385 49.316 19.7219V23.4489L53.426 27.5669C55.0548 29.1963 55.9727 31.404 55.979 33.7079V55.7019C55.9791 55.7895 55.962 55.8763 55.9285 55.9573C55.895 56.0383 55.8459 56.1119 55.7839 56.1738C55.722 56.2358 55.6484 56.2849 55.5674 56.3184C55.4864 56.3519 55.3996 56.369 55.312 56.3689H43.32C43.2324 56.369 43.1456 56.3519 43.0646 56.3184C42.9836 56.2849 42.91 56.2358 42.8481 56.1738C42.7861 56.1119 42.737 56.0383 42.7035 55.9573C42.67 55.8763 42.6529 55.7895 42.653 55.7019V49.2299L42.271 48.6179C41.48 47.3538 40.9934 45.9233 40.8493 44.4391C40.7053 42.9549 40.9078 41.4575 41.441 40.0649L25.799 46.0899C24.9746 46.4076 24.0577 46.3849 23.25 46.0267C22.4423 45.6686 21.81 45.0042 21.492 44.1799L18.988 37.6779C18.1704 37.5946 17.4127 37.2115 16.8609 36.6025C16.3091 35.9935 16.0024 35.2017 16 34.3799V19.7219C16.0011 18.8385 16.3524 17.9916 16.9771 17.367C17.6017 16.7423 18.4486 16.391 19.332 16.3899H45.984ZM54.646 49.7059H43.986V55.0359H54.646V49.7059ZM46.65 51.0379V52.3709H45.318V51.0379H46.65ZM50.325 26.3479L52.58 32.2029C52.8971 33.0271 52.8741 33.9435 52.5159 34.7507C52.1578 35.5579 51.4939 36.1899 50.67 36.5079L49.987 36.7739L52.452 39.2399L51.51 40.1819L40.892 29.5669C40.4814 29.1551 39.9257 28.9208 39.3442 28.9141C38.7628 28.9074 38.2018 29.1289 37.7819 29.5311C37.3619 29.9333 37.1163 30.4841 37.0978 31.0653C37.0793 31.6465 37.2894 32.2118 37.683 32.6399L43.143 38.5969C43.339 38.8099 43.375 39.1269 43.231 39.3769C42.4846 40.6816 42.1061 42.1644 42.1359 43.6673C42.1657 45.1701 42.6025 46.6367 43.4 47.9109L43.689 48.3729H54.646V33.7079C54.6406 31.7576 53.8633 29.8888 52.484 28.5099L50.325 26.3479ZM40.527 37.7079H29.565V37.7119L21.612 40.7769L22.736 43.6999C22.8303 43.9449 22.972 44.1689 23.1529 44.3591C23.3339 44.5493 23.5505 44.7021 23.7904 44.8086C24.0304 44.9151 24.289 44.9733 24.5514 44.9799C24.8139 44.9864 25.075 44.9413 25.32 44.8469L41.393 38.6519L40.527 37.7079ZM25.869 37.7119H20.429L21.131 39.5359L25.869 37.7119ZM45.984 17.7219H19.332C18.8016 17.7219 18.2929 17.9326 17.9178 18.3077C17.5427 18.6828 17.332 19.1915 17.332 19.7219V34.3799C17.332 34.9103 17.5427 35.419 17.9178 35.7941C18.2929 36.1692 18.8016 36.3799 19.332 36.3799H39.306L36.704 33.5369C36.0921 32.8495 35.7706 31.9517 35.8071 31.0322C35.8436 30.1127 36.2352 29.2431 36.8996 28.6064C37.5641 27.9697 38.4495 27.6154 39.3697 27.6181C40.29 27.6208 41.1733 27.9803 41.834 28.6209L47.938 34.7259C47.963 34.6119 47.978 34.4959 47.983 34.3799V23.9719L47.977 23.9569H47.983V19.7219C47.983 19.1916 47.7724 18.6831 47.3976 18.308C47.0227 17.933 46.5143 17.7222 45.984 17.7219ZM49.316 27.4339V34.3799C49.3148 34.8389 49.2188 35.2927 49.034 35.7129L50.19 35.2669C50.4351 35.1726 50.6592 35.031 50.8495 34.8502C51.0399 34.6693 51.1927 34.4527 51.2993 34.2127C51.4059 33.9728 51.4642 33.7141 51.4708 33.4517C51.4775 33.1892 51.4323 32.9279 51.338 32.6829L49.316 27.4329V27.4339ZM21.996 31.7149V33.0479H19.332V31.7149H21.996ZM33.99 31.7149V33.0479H31.325V31.7149H33.99ZM21.997 27.7169V29.0499H19.332V27.7169H21.997ZM25.995 27.7169V29.0499H23.329V27.7169H25.995ZM29.993 27.7169V29.0499H27.327V27.7169H29.993ZM33.99 27.7169V29.0499H31.325V27.7169H33.99ZM23.596 19.0549C24.553 19.0549 25.328 19.8309 25.328 20.7879V23.9859C25.328 24.9429 24.553 25.7179 23.596 25.7179H20.398C20.1705 25.718 19.9451 25.6733 19.7349 25.5863C19.5246 25.4994 19.3336 25.3718 19.1726 25.211C19.0117 25.0501 18.884 24.8591 18.7969 24.6489C18.7098 24.4387 18.665 24.2134 18.665 23.9859V20.7879C18.665 19.8309 19.441 19.0549 20.398 19.0549H23.596ZM23.596 20.3879H20.398C20.2919 20.3879 20.1902 20.43 20.1152 20.5051C20.0401 20.5801 19.998 20.6818 19.998 20.7879V21.7199H21.33V23.0529H19.998V23.9859C19.998 24.2059 20.177 24.3859 20.398 24.3859H23.596C23.7021 24.3859 23.8038 24.3438 23.8788 24.2687C23.9539 24.1937 23.996 24.092 23.996 23.9859V23.0529H22.663V21.7199H23.996V20.7879C23.996 20.6818 23.9539 20.5801 23.8788 20.5051C23.8038 20.43 23.7021 20.3879 23.596 20.3879ZM45.318 19.7219V21.7199H43.985V19.7219H45.318ZM42.652 19.7219V21.7199H41.32V19.7219H42.652ZM39.987 19.7219V21.7199H38.655V19.7219H39.987ZM37.322 19.7219V21.7199H35.989V19.7219H37.322Z" fill="white"/>
</g>
<defs>
<linearGradient id="paint0_linear_7_23" x1="0" y1="0.389893" x2="7169.76" y2="7170.15" gradientUnits="userSpaceOnUse">
<stop stop-color="#33D35E"/>
<stop offset="1" stop-color="#2AB6D9"/>
</linearGradient>
<clipPath id="clip0_7_23">
<rect width="72" height="72" fill="white" transform="translate(0 0.389893)"/>
</clipPath>
</defs>
</svg>
