<svg width="72" height="73" viewBox="0 0 72 73" fill="none" xmlns="http://www.w3.org/2000/svg">
<g clip-path="url(#clip0_7_41)">
<path d="M36 72.77C55.8823 72.77 72 56.6523 72 36.77C72 16.8878 55.8823 0.77002 36 0.77002C16.1177 0.77002 0 16.8878 0 36.77C0 56.6523 16.1177 72.77 36 72.77Z" fill="url(#paint0_linear_7_41)"/>
<path d="M36 16.77C37.1972 16.7716 38.345 17.2479 39.1915 18.0945C40.0381 18.941 40.5144 20.0888 40.516 21.286C40.5155 22.0166 40.3378 22.7362 39.9979 23.3829C39.6581 24.0296 39.1664 24.5842 38.565 24.999C41.212 26.03 43.097 28.6 43.097 31.609V34.835H36.645V35.48C36.645 35.836 36.935 36.125 37.29 36.125H38.58C39.648 36.125 40.516 36.993 40.516 38.06V39.35C40.5155 39.8631 40.3115 40.3551 39.9487 40.718C39.586 41.081 39.0941 41.2852 38.581 41.286H37.428L38.118 41.976L37.154 43.566C37.201 43.666 37.235 43.766 37.278 43.866H43.565C43.013 43.3835 42.5706 42.7886 42.2672 42.1211C41.9639 41.4537 41.8066 40.7292 41.806 39.996C41.8076 38.6276 42.352 37.3156 43.3197 36.348C44.2875 35.3805 45.5995 34.8363 46.968 34.835C48.3361 34.8366 49.6478 35.3807 50.6153 36.348C51.5828 37.3154 52.1271 38.6269 52.129 39.995C52.129 40.7614 51.9581 41.5181 51.6287 42.21C51.2993 42.902 50.8198 43.5118 50.225 43.995C53.508 44.616 56 47.502 56 50.964V56.77H41.161V49.35C41.1605 49.0937 41.0584 48.8481 40.8772 48.6668C40.696 48.4856 40.4503 48.3835 40.194 48.383H39.226V49.533L37.424 49.976C37.344 50.191 37.254 50.406 37.155 50.618L38.118 52.208L34.665 55.662L33.075 54.699C32.861 54.799 32.647 54.889 32.433 54.967L31.99 56.77H27.107L26.665 54.968C26.4474 54.8875 26.2333 54.7981 26.023 54.7L24.433 55.662L20.979 52.209L21.942 50.619C21.8441 50.4087 21.7547 50.1945 21.674 49.977L19.871 49.534V44.65L21.674 44.207C21.753 43.993 21.843 43.779 21.942 43.565L20.979 41.975L21.669 41.285H20.516C20.0031 41.2842 19.5113 41.0801 19.1486 40.7174C18.7859 40.3547 18.5818 39.863 18.581 39.35V38.06C18.581 36.992 19.449 36.124 20.516 36.124H21.806C21.8908 36.1242 21.9748 36.1076 22.0531 36.0752C22.1315 36.0429 22.2027 35.9954 22.2627 35.9355C22.3227 35.8756 22.3703 35.8044 22.4028 35.7261C22.4353 35.6478 22.452 35.5638 22.452 35.479V34.834H16V31.608C16 28.599 17.885 26.029 20.532 24.998C19.9306 24.5832 19.4389 24.0286 19.0991 23.3819C18.7592 22.7352 18.5815 22.0156 18.581 21.285C18.5829 20.088 19.0593 18.9405 19.9058 18.0941C20.7524 17.2478 21.8999 16.7716 23.097 16.77C24.2942 16.7716 25.442 17.2479 26.2885 18.0945C27.1351 18.941 27.6114 20.0888 27.613 21.286C27.6124 22.0167 27.4345 22.7363 27.0945 23.383C26.7545 24.0298 26.2626 24.5843 25.661 24.999C27.3838 25.6716 28.7777 26.9876 29.548 28.669C30.3185 26.9878 31.7123 25.6718 33.435 24.999C32.8336 24.5842 32.3419 24.0296 32.0021 23.3829C31.6622 22.7362 31.4845 22.0166 31.484 21.286C31.4856 20.0888 31.9619 18.941 32.8085 18.0945C33.655 17.2479 34.8028 16.7716 36 16.77ZM48.903 45.157H31.806C31.5569 45.1683 31.3217 45.2753 31.1494 45.4556C30.9772 45.6359 30.881 45.8756 30.881 46.125C30.881 46.3744 30.9772 46.6142 31.1494 46.7945C31.3217 46.9748 31.5569 47.0817 31.806 47.093H40.194C40.7927 47.0936 41.3667 47.3316 41.7901 47.755C42.2134 48.1783 42.4515 48.7523 42.452 49.351V55.48H51.484V48.383H52.774V55.48H54.71V50.964C54.7084 49.4244 54.0961 47.9483 53.0074 46.8596C51.9187 45.7709 50.4426 45.1586 48.903 45.157ZM30.978 38.705H28.118L27.748 40.219L27.401 40.329C27.0174 40.4518 26.645 40.6074 26.288 40.794L25.968 40.961L24.629 40.151L22.608 42.173L23.418 43.511L23.25 43.831C23.0636 44.1884 22.908 44.5611 22.785 44.945L22.675 45.291L21.161 45.663V48.523L22.675 48.893L22.784 49.24C22.901 49.608 23.057 49.983 23.25 50.353L23.417 50.673L22.607 52.012L24.628 54.033L25.966 53.223L26.288 53.391C26.658 53.583 27.032 53.74 27.402 53.857L27.746 53.967L28.119 55.48H30.979L31.349 53.966L31.695 53.857C32.0787 53.7339 32.451 53.578 32.808 53.391L33.13 53.224L34.468 54.034L36.489 52.013L35.679 50.675L35.846 50.353C36.039 49.983 36.196 49.609 36.313 49.239L36.423 48.895L37.935 48.522V48.382H35.21C34.9167 49.6646 34.197 50.8097 33.1685 51.6301C32.14 52.4506 30.8637 52.898 29.548 52.899C28.0087 52.8972 26.533 52.2849 25.4446 51.1964C24.3561 50.108 23.7439 48.6323 23.742 47.093C23.7436 45.5536 24.3558 44.0776 25.4442 42.989C26.5327 41.9003 28.0085 41.2879 29.548 41.286C31.484 41.286 33.288 42.271 34.361 43.867H35.864L35.847 43.833L35.68 43.511L36.49 42.173L34.468 40.152L33.13 40.962L32.809 40.795C32.4519 40.6083 32.0796 40.4524 31.696 40.329L31.35 40.219L30.978 38.705ZM29.548 42.576C28.3506 42.5776 27.2027 43.054 26.3561 43.9008C25.5095 44.7476 25.0333 45.8956 25.032 47.093C25.0336 48.2903 25.5099 49.438 26.3565 50.2846C27.203 51.1311 28.3508 51.6074 29.548 51.609C30.5202 51.608 31.4663 51.2937 32.2457 50.7125C33.0252 50.1314 33.5965 49.3145 33.875 48.383H32.504C32.2496 48.9657 31.8287 49.4602 31.2942 49.8044C30.7596 50.1485 30.1352 50.327 29.4995 50.3174C28.8638 50.3077 28.2451 50.1104 27.7212 49.7502C27.1973 49.39 26.7916 48.883 26.555 48.2929C26.3184 47.7028 26.2615 47.0559 26.3914 46.4336C26.5214 45.8112 26.8324 45.2411 27.2854 44.795C27.7384 44.3489 28.3131 44.0466 28.9374 43.9262C29.5616 43.8057 30.2076 43.8725 30.794 44.118C31.1068 43.9557 31.4536 43.8697 31.806 43.867H32.704C31.86 43.0427 30.7278 42.5789 29.548 42.576ZM29.548 45.157C29.0349 45.1578 28.543 45.3621 28.1803 45.725C27.8175 46.0879 27.6135 46.5799 27.613 47.093C27.613 48.16 28.481 49.028 29.548 49.028C30.171 49.028 30.732 48.728 31.09 48.255C30.6423 48.1061 30.2527 47.8205 29.976 47.4383C29.6994 47.0562 29.5496 46.5968 29.548 46.125C29.548 45.788 29.628 45.472 29.76 45.185C29.689 45.176 29.62 45.157 29.548 45.157ZM46.968 36.125C45.9418 36.1261 44.958 36.5341 44.2323 37.2596C43.5066 37.9851 43.0983 38.9689 43.097 39.995C43.0978 41.0213 43.5057 42.0054 44.2313 42.7314C44.9568 43.4573 45.9407 43.8657 46.967 43.867C47.9935 43.8662 48.9777 43.4582 49.7037 42.7324C50.4296 42.0067 50.8379 41.0225 50.839 39.996C50.8379 38.9697 50.4298 37.9857 49.704 37.26C48.9783 36.5343 47.9943 36.1261 46.968 36.125ZM35.355 34.835H23.742V35.48C23.7412 35.9931 23.5369 36.485 23.174 36.8477C22.8111 37.2105 22.3191 37.4145 21.806 37.415H20.516C20.3449 37.415 20.1809 37.483 20.0599 37.6039C19.939 37.7249 19.871 37.889 19.871 38.06V39.35C19.871 39.707 20.16 39.996 20.516 39.996H22.959L24.432 38.524L26.022 39.486C26.235 39.386 26.45 39.297 26.664 39.218L27.107 37.415H31.99L32.433 39.218C32.647 39.298 32.861 39.387 33.075 39.486L34.665 38.524L36.137 39.996H38.581C38.7521 39.996 38.9161 39.9281 39.0371 39.8071C39.158 39.6861 39.226 39.5221 39.226 39.351V38.061C39.2261 37.9762 39.2095 37.8923 39.1772 37.8139C39.1448 37.7355 39.0973 37.6643 39.0374 37.6043C38.9775 37.5443 38.9064 37.4967 38.8281 37.4642C38.7497 37.4317 38.6658 37.415 38.581 37.415H37.291C36.7779 37.4145 36.2859 37.2105 35.923 36.8477C35.5601 36.485 35.3558 35.9931 35.355 35.48V34.835ZM23.097 25.802C21.5574 25.8036 20.0813 26.4159 18.9926 27.5046C17.9039 28.5933 17.2916 30.0694 17.29 31.609V33.544H19.226V28.383H20.516V33.544H25.677V28.383H26.967V33.544H28.903V31.61C28.9014 30.0706 28.2892 28.5946 27.2008 27.506C26.1123 26.4173 24.6365 25.8049 23.097 25.803V25.802ZM36 25.802C34.4605 25.8039 32.9847 26.4163 31.8962 27.505C30.8078 28.5936 30.1956 30.0696 30.194 31.609V33.544H32.129V28.383H33.419V33.544H38.581V28.383H39.871V33.544H41.806V31.61C41.8047 30.0704 41.1926 28.5942 40.1041 27.5053C39.0156 26.4164 37.5396 25.8039 36 25.802ZM51.484 24.512C52.6812 24.5136 53.829 24.9899 54.6755 25.8365C55.5221 26.683 55.9984 27.8308 56 29.028C55.9984 30.2252 55.5221 31.373 54.6755 32.2196C53.829 33.0661 52.6812 33.5424 51.484 33.544H44.387V29.028C44.3886 27.8308 44.8649 26.683 45.7115 25.8365C46.558 24.9899 47.7058 24.5136 48.903 24.512H51.484ZM51.484 25.802H48.904C48.0486 25.8028 47.2284 26.1429 46.6234 26.7477C46.0184 27.3525 45.6781 28.1726 45.677 29.028V32.254H51.484C52.3393 32.253 53.1592 31.9127 53.764 31.308C54.3687 30.7032 54.7089 29.8833 54.71 29.028C54.7089 28.1728 54.3687 27.3528 53.764 26.7481C53.1592 26.1433 52.3393 25.8031 51.484 25.802ZM48.258 29.673V30.963H46.968V29.673H48.258ZM50.838 29.673V30.963H49.548V29.673H50.838ZM53.419 29.673V30.963H52.129V29.673H53.419ZM53.419 27.093V28.383H46.968V27.093H53.419ZM23.097 18.06C22.2417 18.0611 21.4218 18.4013 20.817 19.0061C20.2123 19.6108 19.8721 20.4308 19.871 21.286C19.8721 22.1413 20.2123 22.9612 20.817 23.566C21.4218 24.1707 22.2417 24.511 23.097 24.512C23.9523 24.511 24.7722 24.1707 25.377 23.566C25.9817 22.9612 26.3219 22.1413 26.323 21.286C26.3219 20.4308 25.9817 19.6108 25.377 19.0061C24.7722 18.4013 23.9523 18.0611 23.097 18.06ZM36 18.06C35.1447 18.0611 34.3248 18.4013 33.72 19.0061C33.1153 19.6108 32.7751 20.4308 32.774 21.286C32.7751 22.1413 33.1153 22.9612 33.72 23.566C34.3248 24.1707 35.1447 24.511 36 24.512C36.8553 24.511 37.6752 24.1707 38.28 23.566C38.8847 22.9612 39.2249 22.1413 39.226 21.286C39.2249 20.4308 38.8847 19.6108 38.28 19.0061C37.6752 18.4013 36.8553 18.0611 36 18.06Z" fill="white"/>
</g>
<defs>
<linearGradient id="paint0_linear_7_41" x1="0" y1="0.77002" x2="7169.76" y2="7170.53" gradientUnits="userSpaceOnUse">
<stop stop-color="#33D35E"/>
<stop offset="1" stop-color="#2AB6D9"/>
</linearGradient>
<clipPath id="clip0_7_41">
<rect width="72" height="72" fill="white" transform="translate(0 0.77002)"/>
</clipPath>
</defs>
</svg>
